# xmcd CD database file
#
# Track frame offsets:
#	150
#	12797
#	23342
#	34637
#	46832
#	59177
#	72647
#	84767
#	94187
#	107657
#	117752
#	132347
#	142742
#	152237
#	163157
#	173777
#	185897
#	196292
#	207887
#	220457
#	232577
#	247622
#	259442
#	270962
#	281357
#
# Disc length: 3903 seconds
#
# Revision: 0
# Processed by: cddbd v1.5.2PL0 Copyright (c) Steve Scherf et al.
# Submitted via: CDex 1.51
#
DISCID=540f3d19
DTITLE=Various Artist - Country Western  CD 12  1953
DYEAR=2012
DGENRE=Country
TTITLE0=Jim Reeves-Bimbo
TTITLE1=Johnnie and Jack-South In New Orleans
TTITLE2=Carl Smith-Hey Joe
TTITLE3=Arlie Duff-You All Come
TTITLE4=Hank Williams-I Won't Be Home No More
TTITLE5=Joe and Rose Lee Maphis-Dim Lights Thick Smoke
TTITLE6=Webb Pierce-I'll Go On Alone
TTITLE7=Hank Snow-For Now And Always
TTITLE8=Darrell Glenn-Crying In The Chapel
TTITLE9=Hank Thompson-Rub A Dub Dub
TTITLE10=Red Foley-Midnight
TTITLE11=Eddy Arnold-Free Home Demonstration
TTITLE12=Webb Pierce-I Haven't Got The Heart
TTITLE13=Autry Inman-That's All Right
TTITLE14=Tennessee Ernie Ford-Hey Mister Cottonpicker
TTITLE15=Carl Smith-That's The Kind Of Love I'm Looking For
TTITLE16=Bonnie Lou-Seven Lonely Days
TTITLE17=Hank Williams-Weary Blues From Waitin'
TTITLE18=Homer and Jethro-How Much Is The Hound Dog In The Window
TTITLE19=Webb Pierce-The Last Waltz
TTITLE20=Jack Cardwell-The Death Of Hank Williams
TTITLE21=Faron Young-I Can't Wait For The Sun To Go Down
TTITLE22=Carl Smith-Do I Like It
TTITLE23=Hank Snow-Spanish Fireball
TTITLE24=Jean Shepard and Ferlin Husky-A Dear John Letter
EXTD=YEAR: 2012
EXTT0=
EXTT1=
EXTT2=
EXTT3=
EXTT4=
EXTT5=
EXTT6=
EXTT7=
EXTT8=
EXTT9=
EXTT10=
EXTT11=
EXTT12=
EXTT13=
EXTT14=
EXTT15=
EXTT16=
EXTT17=
EXTT18=
EXTT19=
EXTT20=
EXTT21=
EXTT22=
EXTT23=
EXTT24=
PLAYORDER=
